<svg xmlns="http://www.w3.org/2000/svg" viewBox="0 0 2656.65 1513.45"><defs><style>.cls-1{fill:#ebf3fa;}.cls-2{opacity:0.3;}.cls-3{fill:#aec3ff;}.cls-4{fill:#dfebfd;}.cls-5{opacity:0.5;}.cls-6{fill:#c5ddff;}.cls-7{opacity:0.2;}.cls-8{fill:#91b5f8;}.cls-9{fill:#f99746;}.cls-10{fill:#a8d29f;}.cls-11{fill:#d8702a;}.cls-12{fill:#ed7d2b;}.cls-13{fill:#e27329;}.cls-14{fill:#505aba;}.cls-15{fill:#e6f0ff;}.cls-16{fill:#f78248;}.cls-17{fill:#2c3a64;}.cls-18{fill:#ffb27d;}.cls-19{fill:#6376e5;}.cls-20{fill:#2f539b;}.cls-21{fill:#233862;}.cls-22{fill:#94b0ed;}.cls-23{fill:#ed985f;}.cls-24{fill:#ed975d;}.cls-25{fill:#fff;}.cls-26{fill:#0e2644;}.cls-27{fill:#163560;}.cls-28{fill:#1c468a;}.cls-29{fill:#fca56b;}.cls-30{fill:#2e3552;}</style></defs><g id="Camada_2" data-name="Camada 2"><g id="_лой_1" data-name="‘лой_1"><path class="cls-1" d="M99.77,1509.81s-183.74-278,16.37-605S585,742.19,572,361.53,1127.44-56,1328.33,54.33s378.25,47.15,618.18,54.85c389.14,12.48,498.08,396.45,390.19,583.31-153.08,265.13,479.55,296.31,115.39,817.32Z"/><g class="cls-2"><path class="cls-3" d="M404,910.72c-18.09-66.34,89-105.14,89-105.14s124.37,61.68,144.85,52.87-96-73.5-96-73.5c34.87-25.27,155.67-35.24,155.67-35.24s62.62,120.36,80.3,106.78-60.88-103.74-60.88-103.74c42.07-10.27,100,11.87,100,11.87,81.63,43.48,21.59,146,21.59,146s22.6,41.25,74.93,73.06h0s10.69,5.27,25,16.49l-9.76,5.73q-3.49-3.23-7.09-6s0,0,0,0l-.11-.08c-1.55-1.12-3.77-2.7-6.5-4.61h0c-6.4-4.08-10.95-7.21-14-9.57l0,0c-19.68-13.07-46.54-29.38-58.05-29.35a22.33,22.33,0,0,0-.54-5.7q.25,2.72.54,5.7c4.3,45.57-75.68,100.52-127.78,118.27s-39.54-7.26-27-43.25,68.31-61.16,78.92-78.61-17-12.49-46.56,8.09-26.91,60.68-74.2,94.84-140.73-37.65-140.73-37.65c40.88-9.56,91.69-65,87.08-78.35s-95.73,41.75-112.14,46.57S422.12,977.06,404,910.72Z"/></g><path class="cls-4" d="M2195.19,1398.73c66.52-64.6-31.18-183.13-31.18-183.13s-186.72-13.74-204.45-38,161.93-19.43,161.93-19.43c-23.14-53.27-156.54-147.74-156.54-147.74s-155.29,96.77-166.5,68.87,141.88-78.67,141.88-78.67c-41.81-40.78-124.2-54.79-124.2-54.79-124.61-5.54-125.28,154.75-125.28,154.75s-54.54,32.37-137.13,33.39h0s-16-1.22-40.35,2l7.4,13.34c4.18-.89,8.3-1.61,12.36-2.12a.06.06,0,0,1,.07,0l.18,0c2.57-.23,6.23-.54,10.71-.89h0c10.23-.35,17.65-.86,22.87-1.48h0c31.81-1.67,74.19-2.17,87.54,5.76a29.34,29.34,0,0,1,4.53-6.24l-4.53,6.24c-36.27,50,18.87,168.64,67.19,225s50.87,18.7,61-31.69-37.34-117.89-37.68-145.42,28.26-2.87,48.51,41.34-10.4,88.91,21.06,161,189.22,52.86,189.22,52.86c-40.9-39.15-61.83-138.42-47.33-150.72s82.49,114.17,98.24,131S2128.67,1463.33,2195.19,1398.73Z"/><g class="cls-5"><path class="cls-6" d="M786.66,714.37s-85-88.52-178.6-109c-12.44-2.72-21.41,11.75-13.53,21.76l.4.5C608.66,644.52,719.67,675.63,786.66,714.37Z"/></g><g class="cls-5"><path class="cls-6" d="M813.73,737.65S672.36,653.52,547,663.73a14.45,14.45,0,0,0-13.41,14.76c.22,5,3.07,10.89,11.66,17C568.1,711.78,717,712.41,813.73,737.65Z"/></g><g class="cls-5"><g class="cls-5"><path class="cls-3" d="M1809.56,932.48s20.17-126.14,88.12-199.19c9-9.71,25.3-2.65,24.49,10.58,0,.22,0,.44,0,.67C1920.39,767.11,1843.88,859.59,1809.56,932.48Z"/></g><g class="cls-5"><path class="cls-3" d="M1800.22,968.45s71-155.84,184.34-221.5c6.91-4,16-2.1,20.24,4.66,2.77,4.4,3.83,11.15.11,21.46C1995,800.59,1868,889.47,1800.22,968.45Z"/></g></g><g class="cls-7"><path class="cls-8" d="M1228.46,642.71l49.48-5.43a11,11,0,0,1,10.37,5q4.28,6.68,9.17,13.09A185.56,185.56,0,0,0,1317,677.3a10.89,10.89,0,0,1,2.65,12l-19.11,48.39a10.69,10.69,0,0,0,5.23,13.56l42.56,21.23a10.56,10.56,0,0,0,13.56-3.72l25.89-40.3a10.6,10.6,0,0,1,11.89-4.56,192.32,192.32,0,0,0,60.31,6.18,11,11,0,0,1,11,7.63l8.66,27.83a11.06,11.06,0,0,0,12.55,7.5l46.31-9.23a9.81,9.81,0,0,0,2.68-.88,10.63,10.63,0,0,0,5.95-10.82l-4-37-1-9a190.28,190.28,0,0,0,22.49-14.76A193,193,0,0,0,1591,667a10.6,10.6,0,0,1,11.85-2.82l39,15.43a11,11,0,0,0,13.89-5.34l16.24-32.53,4.62-9.34a11.13,11.13,0,0,0-3.91-14.36l-33.67-21.66a10.58,10.58,0,0,1-4.72-11.56,191,191,0,0,0,5.25-40.49c.12-1.18.11-2.27.12-3.43a5.51,5.51,0,0,1,.07-1.15,10.87,10.87,0,0,1,7.68-9.28l45.15-14.15a8,8,0,0,0,1.48-.58,11,11,0,0,0,6-11.94l-9.13-46.18a11,11,0,0,0-12-8.78l-51.61,5.69a10.61,10.61,0,0,1-10.64-5.62,195,195,0,0,0-16.08-24.75q-4.85-6.34-10.1-12.17a11.2,11.2,0,0,1-2.09-11.6l18.35-46.51a10.66,10.66,0,0,0-5.16-13.48l-42.13-20.94a11.17,11.17,0,0,0-14.41,3.95l-20.49,31.89a11,11,0,0,1-12.77,4.48,192,192,0,0,0-58.17-10.62,10.9,10.9,0,0,1-10.24-7.69l-12.73-40.7a11.28,11.28,0,0,0-12.89-7.66l-46,9.07a10.78,10.78,0,0,0-8.64,11.78l.21,2.16,4.69,42.95a11,11,0,0,1-6,11.05l0,0a192,192,0,0,0-28.59,18.05c-4.87,3.72-9.47,7.64-13.93,11.73a10.82,10.82,0,0,1-11.38,2.19l-39.55-15.67a11.17,11.17,0,0,0-14.13,5.38l-20.88,41.95a12.13,12.13,0,0,0-1.08,3.69,11.13,11.13,0,0,0,5,10.43l26.94,17.23a11.14,11.14,0,0,1,5,9.7,12,12,0,0,1-.57,3,191.14,191.14,0,0,0-9.92,74.92,10.78,10.78,0,0,1-5.81,10.31,10.47,10.47,0,0,1-1.72.69l-36.57,11.44a10.94,10.94,0,0,0-7.46,12.52l.21,1.07,8.86,45A11.14,11.14,0,0,0,1228.46,642.71Zm316.85-139.57A126.93,126.93,0,0,1,1552,526c3,15.55-.24,40.08-7.3,54.28-.75,1.52-1.53,3-2.31,4.49-48.65,89.71-175.47,71.48-196.08-29.95-2.67-13.26-.93-32.56,3.85-47.34a68.75,68.75,0,0,1,3.81-9.33,118.14,118.14,0,0,1,23.7-32.42C1429.88,415.84,1516.89,432.47,1545.31,503.14Z"/></g><path class="cls-3" d="M1854.52,561.68l30.73-3.37a6.84,6.84,0,0,1,6.44,3.1q2.65,4.14,5.69,8.13a116.85,116.85,0,0,0,12.13,13.62,6.75,6.75,0,0,1,1.64,7.44l-11.86,30a6.64,6.64,0,0,0,3.24,8.43L1929,642.25a6.55,6.55,0,0,0,8.42-2.31l16.08-25a6.6,6.6,0,0,1,7.38-2.83,119.46,119.46,0,0,0,37.46,3.84,6.81,6.81,0,0,1,6.8,4.74l5.37,17.28a6.87,6.87,0,0,0,7.8,4.66l28.76-5.73a6.23,6.23,0,0,0,1.66-.55,6.59,6.59,0,0,0,3.69-6.72l-2.49-23-.62-5.59a117.23,117.23,0,0,0,14-9.17,119.5,119.5,0,0,0,16.4-15.09A6.6,6.6,0,0,1,2087,575l24.2,9.59a6.82,6.82,0,0,0,8.62-3.32l10.09-20.2,2.87-5.8a6.92,6.92,0,0,0-2.43-8.92l-20.91-13.45a6.57,6.57,0,0,1-2.93-7.18,118.64,118.64,0,0,0,3.26-25.14,19.1,19.1,0,0,0,.07-2.13,4.36,4.36,0,0,1,.05-.72,6.76,6.76,0,0,1,4.77-5.76l28-8.78a5.23,5.23,0,0,0,.91-.36,6.86,6.86,0,0,0,3.72-7.42l-5.67-28.68a6.83,6.83,0,0,0-7.43-5.45l-32,3.53a6.58,6.58,0,0,1-6.61-3.48,119.76,119.76,0,0,0-10-15.38c-2-2.63-4.09-5.14-6.27-7.56a6.93,6.93,0,0,1-1.29-7.2l11.39-28.88a6.63,6.63,0,0,0-3.2-8.37L2060,361a6.94,6.94,0,0,0-8.94,2.46l-12.73,19.8a6.8,6.8,0,0,1-7.93,2.78,119.29,119.29,0,0,0-36.12-6.59,6.77,6.77,0,0,1-6.36-4.78l-7.91-25.27a7,7,0,0,0-8-4.76l-28.58,5.64a6.68,6.68,0,0,0-5.36,7.31l.13,1.34,2.91,26.67a6.84,6.84,0,0,1-3.72,6.87l0,0a118,118,0,0,0-17.75,11.2c-3,2.32-5.89,4.75-8.66,7.29a6.71,6.71,0,0,1-7.07,1.36l-24.55-9.73a6.93,6.93,0,0,0-8.78,3.34l-13,26a7.22,7.22,0,0,0-.67,2.29,6.9,6.9,0,0,0,3.07,6.48l16.73,10.7a6.82,6.82,0,0,1,2.76,7.9,118.75,118.75,0,0,0-6.16,46.53,6.69,6.69,0,0,1-3.61,6.4,7.12,7.12,0,0,1-1.06.43l-22.71,7.1a6.8,6.8,0,0,0-4.64,7.77l.13.67,5.5,28A6.92,6.92,0,0,0,1854.52,561.68ZM2051.29,475a79.4,79.4,0,0,1,4.13,14.2c1.85,9.66-.15,24.88-4.54,33.7-.46,1-1,1.87-1.43,2.79-30.22,55.71-109,44.39-121.77-18.6-1.66-8.23-.57-20.22,2.4-29.39a42.11,42.11,0,0,1,2.36-5.8,73.37,73.37,0,0,1,14.72-20.13C1979.6,420.79,2033.63,431.12,2051.29,475Z"/><path class="cls-9" d="M1675.36,374l21-7a4.91,4.91,0,0,1,5,1.19q2.49,2.49,5.22,4.82a83.06,83.06,0,0,0,10.55,7.68,4.82,4.82,0,0,1,2.29,5l-3.72,22.83a4.74,4.74,0,0,0,3.55,5.4l20.5,5.2a4.69,4.69,0,0,0,5.54-2.9l7.43-20a4.72,4.72,0,0,1,4.74-3.1,85.57,85.57,0,0,0,26.79-3,4.88,4.88,0,0,1,5.48,2.28l6.39,11.27a4.9,4.9,0,0,0,6.16,2.07l19.25-8.39a4.44,4.44,0,0,0,1.08-.63,4.72,4.72,0,0,0,1.56-5.27l-5.24-15.68-1.28-3.82a84.51,84.51,0,0,0,8.37-8.54,86.4,86.4,0,0,0,9.18-13.06,4.7,4.7,0,0,1,4.88-2.35l18.38,3a4.9,4.9,0,0,0,5.54-3.63l4-15.67,1.13-4.5a5,5,0,0,0-3.06-5.87l-16.68-6.22a4.7,4.7,0,0,1-3.14-4.58,85,85,0,0,0-1.55-18.09,15.2,15.2,0,0,0-.27-1.5,2.26,2.26,0,0,1-.08-.51,4.84,4.84,0,0,1,2.46-4.75L1865,275.21a4.19,4.19,0,0,0,.58-.39,4.93,4.93,0,0,0,1.48-5.76l-8.34-19.2a4.87,4.87,0,0,0-6-2.68l-21.89,7.35a4.71,4.71,0,0,1-5.15-1.43,87.62,87.62,0,0,0-9.33-9.24c-1.8-1.53-3.65-3-5.54-4.33a5,5,0,0,1-2-4.84l3.57-21.95a4.76,4.76,0,0,0-3.52-5.37l-20.28-5.11a5,5,0,0,0-5.89,3.08l-5.89,15.79a4.86,4.86,0,0,1-5.12,3.16,85.19,85.19,0,0,0-26.28.89,4.85,4.85,0,0,1-5.18-2.38l-9.38-16.48a5,5,0,0,0-6.32-2.11l-19.14,8.3a4.79,4.79,0,0,0-2.64,5.93l.3.92,6.1,18.22a4.91,4.91,0,0,1-1.56,5.37v0a83.83,83.83,0,0,0-10.71,10.54c-1.77,2.08-3.4,4.22-4.95,6.41a4.79,4.79,0,0,1-4.74,2l-18.66-3.07a5,5,0,0,0-5.63,3.68l-5.11,20.2a5.25,5.25,0,0,0-.11,1.71,4.92,4.92,0,0,0,3.13,4.06l13.34,4.94a5,5,0,0,1,3.09,3.74,5.2,5.2,0,0,1,0,1.37,85,85,0,0,0,2.78,33.49,4.8,4.8,0,0,1-1.55,5,5.4,5.4,0,0,1-.68.46L1663,346a4.86,4.86,0,0,0-2.06,6.14l.19.45,8.11,18.72A5,5,0,0,0,1675.36,374Zm124.47-90.61a56.37,56.37,0,0,1,5.05,9.3c2.77,6.48,3.69,17.44,2,24.27-.18.74-.38,1.46-.58,2.18-12.65,43.58-69.47,47.65-88,5.53-2.42-5.51-3.49-14.06-2.81-20.93a30,30,0,0,1,.78-4.42,52.53,52.53,0,0,1,7.23-16.33C1741.42,256.37,1780.8,255.37,1799.83,283.39Z"/><path class="cls-10" d="M170.11,1508h90.47c4.85-4.11-3.35-13.45-11.92-14.08-3.72-.28-8.43.5-13.81,1.64-1.24-16.54-8.35-90.88-35.15-87.89-30.13,3.35,0,32.74,8.52,50.14,6.31,12.89,13,31.37,16,40.1-2.44.53-5,1-7.56,1.52-4-12.26-18.85-53.5-37.75-51.1-22.18,2.81-13.27,19.35,2.46,29.17,11.53,7.21,25.7,17.47,32.43,22.43a96.18,96.18,0,0,1-17.69,1.42C180.61,1501,173.05,1505.52,170.11,1508Z"/><path class="cls-10" d="M2388.84,1505.78H2286.53c-5.48-4.66,3.8-15.22,13.49-15.93,4.21-.31,9.53.57,15.61,1.85,1.41-18.7,9.45-102.76,39.75-99.38,34.07,3.78,0,37-9.63,56.7-7.14,14.57-14.66,35.47-18.1,45.34,2.77.6,5.63,1.18,8.55,1.72,4.52-13.86,21.32-60.5,42.69-57.78,25.08,3.18,15,21.88-2.78,33-13,8.16-29.06,19.76-36.68,25.37a108.85,108.85,0,0,0,20,1.6C2377,1497.83,2385.52,1503,2388.84,1505.78Z"/><path class="cls-11" d="M1253.8,881.82l-49.49,588.38s-5.18,35.67,21.35,35.73c43.62.11,217.12,0,217.12,0s-32.84-7.42-32.44-24.13c.47-19.69,57.84-605.55,57.84-605.55Z"/><path class="cls-9" d="M1459.11,1495.49c-8.58,0-176.55.31-219-.23-18.51-.23-21.75-16.46-21.91-27a52.43,52.43,0,0,1,.56-8.76l1.29-15.29,3.28-39,2.9-34.43,3.72-44.25,3.14-37.35,35.16-418.09,214.38-5.57s-24.16,245.18-41.25,423.66c-1.91,19.88-3.73,39-5.41,56.75q-.81,8.52-1.57,16.64c-1.59,16.89-3,32.4-4.3,46.09-.66,7.21-1.27,13.92-1.83,20.06-2.18,24.07-3.46,39.44-3.47,42.36a24.68,24.68,0,0,0,.41,4.76C1428.7,1494.65,1455.89,1495.49,1459.11,1495.49Z"/><polygon class="cls-9" points="733.16 561.64 853.7 1045.81 870.2 1112.12 926.34 1337.63 1969.33 1337.63 1762.41 561.64 733.16 561.64"/><polygon class="cls-11" points="733.16 561.64 716.46 567.21 904.13 1354.47 926.34 1337.63 733.16 561.64"/><polygon class="cls-12" points="904.13 1354.47 1940.7 1354.47 1969.33 1337.63 926.34 1337.63 904.13 1354.47"/><rect class="cls-9" x="1268.15" y="1495.49" width="224.43" height="10.66" transform="translate(2760.73 3001.65) rotate(180)"/><polygon class="cls-13" points="1435.53 1354.47 1434.37 1362.62 1223.3 1405.26 1226.2 1370.83 1227.58 1354.47 1435.53 1354.47"/><g class="cls-5"><path class="cls-12" d="M1459.11,1495.49c-8.58,0-176.55.31-219-.23-18.51-.23-21.75-16.46-21.91-27l210.07-39.52c-2.18,24.07-3.46,39.44-3.47,42.36a24.68,24.68,0,0,0,.41,4.76C1428.7,1494.65,1455.89,1495.49,1459.11,1495.49Z"/></g><polygon class="cls-12" points="733.16 561.64 1762.41 561.64 1929.41 1185.29 888.42 1185.29 733.16 561.64"/><polygon class="cls-14" points="1880.86 1158.27 917.17 1158.27 882.73 1021.08 869.41 968 863.98 946.35 828.59 805.37 826.75 798.03 808.04 723.51 799.67 690.17 792.53 661.72 775.79 595.05 1725.59 595.05 1743.97 661.72 1751.81 690.17 1761 723.51 1821.56 943.18 1821.56 943.19 1826.69 961.8 1829.08 970.44 1870.89 1122.09 1880.86 1158.27"/><polygon class="cls-12" points="1279.46 1185.29 926.7 1339.45 888.42 1185.29 1279.46 1185.29"/><path class="cls-15" d="M1365.85,947.64c-78.74,0-153.42-64-166.47-142.78s40.37-142.79,119.1-142.79,153.42,64,166.47,142.79S1444.58,947.64,1365.85,947.64Zm-43.28-261c-65.16,0-109.38,53-98.58,118.18S1296.6,923,1361.76,923s109.38-53,98.58-118.17S1387.73,686.68,1322.57,686.68Z"/><path class="cls-9" d="M1365.9,948c-78.91,0-153.76-64.2-166.85-143.11s40.47-143.12,119.38-143.12c42.87,0,86.27,19,119.07,52.08,25.31,25.54,42.28,57.87,47.78,91,1.16,7-3.56,12.63-10.54,12.63A15.52,15.52,0,0,1,1460,804.86c-4.53-27.32-18.5-53.94-39.34-75-27-27.26-62.75-42.89-98.05-42.89-65,0-109.08,52.87-98.3,117.85s72.41,117.84,137.39,117.84a15.52,15.52,0,0,1,14.73,12.63C1377.6,942.31,1372.88,948,1365.9,948Z"/><path class="cls-15" d="M1636.82,1057.61l2.26,13.65c1.24,7.45-3.84,13.54-11.3,13.54H1149.4c-7.45,0-14.55-6.09-15.79-13.54l-2.26-13.65c-1.24-7.46,3.84-13.55,11.29-13.55H1621C1628.48,1044.06,1635.58,1050.15,1636.82,1057.61Z"/><path class="cls-9" d="M1482.27,1044.06l6.76,40.74H1149.4c-7.45,0-14.55-6.09-15.79-13.54l-2.26-13.65c-1.24-7.46,3.84-13.55,11.29-13.55Z"/><polygon class="cls-16" points="1411.79 1044.06 1380.97 1084.8 1310.66 1084.8 1341.48 1044.06 1411.79 1044.06"/><polygon class="cls-16" points="1482.27 1044.06 1489.03 1084.8 1423.87 1084.8 1454.69 1044.06 1482.27 1044.06"/><polygon class="cls-16" points="1298.58 1044.06 1267.76 1084.8 1197.45 1084.8 1228.27 1044.06 1298.58 1044.06"/><path class="cls-16" d="M1185.38,1044.06l-30.82,40.74h-5.16c-7.45,0-14.55-6.09-15.79-13.54l-2.26-13.65c-1.24-7.46,3.84-13.55,11.29-13.55Z"/><path class="cls-15" d="M1289,785.92h-26.67l-1.35-8.19h37.26l1.17,7-16.31,46h-10.45Z"/><path class="cls-15" d="M1309.11,804.25c-2.51-15.15,4.7-27.42,18.63-27.42s25,12.11,27.58,27.42c2.51,15.15-4.69,27.42-18.63,27.42S1311.65,819.55,1309.11,804.25Zm36.59,0c-1.74-10.46-8.53-19-16.71-19s-12,8.34-10.26,19c1.74,10.45,8.46,19,16.71,19S1347.46,814.85,1345.7,804.25Z"/><path class="cls-15" d="M1361,790.69c-1.22-7.35,2.83-13.56,10.33-13.56s13.44,6.13,14.67,13.56-2.83,13.56-10.33,13.56S1362.25,798.11,1361,790.69Zm18.26,0c-.71-4.25-3.71-7.73-7.12-7.73-3.56,0-5.1,3.48-4.4,7.73s3.71,7.72,7.12,7.72S1380,794.93,1379.28,790.69Zm23.75-13h7.5l-30,53h-7.49Zm-5.47,40.08c-1.22-7.35,2.83-13.56,10.33-13.56s13.44,6.13,14.67,13.56-2.83,13.55-10.33,13.55S1398.79,825.23,1397.56,817.81Zm18.25,0c-.7-4.25-3.7-7.73-7.11-7.73-3.56,0-5.1,3.48-4.4,7.73s3.71,7.72,7.12,7.72S1416.52,822.05,1415.81,817.81Z"/><path class="cls-15" d="M1328.76,1011.86h2.87l2.28,13.73h8.59l.43,2.61h-11.46Z"/><path class="cls-15" d="M1343.66,1022.06a5.33,5.33,0,0,1,5.52-6.44,7.84,7.84,0,0,1,7.63,6.44,5.32,5.32,0,0,1-5.54,6.42A7.84,7.84,0,0,1,1343.66,1022.06Zm10.32,0a4.67,4.67,0,0,0-4.44-4c-2.26,0-3.41,1.78-3,4a4.69,4.69,0,0,0,4.42,4C1353.19,1026,1354.34,1024.23,1354,1022.06Z"/><path class="cls-15" d="M1368.24,1028.2l-.25-1.51a4.18,4.18,0,0,1-3.7,1.77,4.82,4.82,0,0,1-5-3.85c-.45-2.73,1.46-4,4.33-4a11.3,11.3,0,0,1,3.49.51l0-.23c-.28-1.71-1.51-2.64-3.47-2.64a7.71,7.71,0,0,0-3.4.77l-1.14-2.26a9.44,9.44,0,0,1,4.52-1c3.64,0,5.73,1.91,6.28,5.21l1.21,7.3Zm-.79-5.16a8.77,8.77,0,0,0-2.9-.49c-1.78,0-2.71.73-2.5,2a2.48,2.48,0,0,0,2.68,1.83c1.87,0,3.1-1,2.84-2.6Z"/><path class="cls-15" d="M1372.75,1022c-.68-4.09,1.71-6.4,4.65-6.4a6.17,6.17,0,0,1,4.57,2.17l-1.1-6.63h2.82l2.83,17h-2.83l-.34-2a4,4,0,0,1-3.82,2.31C1376.64,1028.46,1373.43,1026.15,1372.75,1022Zm10,0a4.53,4.53,0,0,0-4.22-3.95c-1.94,0-3.3,1.5-2.89,4a4.51,4.51,0,0,0,4.2,4C1381.7,1026,1383.11,1024.42,1382.71,1022Z"/><path class="cls-15" d="M1387.29,1011.3h3l.45,2.69h-3Zm.87,4.58H1391l2,12.32h-2.82Z"/><path class="cls-15" d="M1394.68,1015.88h2.82l.32,1.91a3.63,3.63,0,0,1,3.49-2.17c2.78,0,4.7,1.87,5.18,4.74l1.3,7.84H1405l-1.16-7c-.32-1.92-1.46-3-3.14-3s-2.59,1.14-2.27,3.06l1.16,7h-2.83Z"/><path class="cls-15" d="M1411.56,1030.51l.69-2.12a9.15,9.15,0,0,0,4.61,1.31c2.52,0,3.68-1.31,3.27-3.78l-.16-1a4.25,4.25,0,0,1-4,2.26,6.79,6.79,0,0,1-6.56-5.81c-.61-3.64,1.77-5.79,4.64-5.79a6.4,6.4,0,0,1,4.67,2.1l-.31-1.84h2.83l1.62,9.8c.35,2.08.07,3.62-.79,4.65s-2.57,1.66-4.79,1.66A11.92,11.92,0,0,1,1411.56,1030.51Zm7.85-9.1a4.23,4.23,0,0,0-4.19-3.41,2.77,2.77,0,0,0-2.93,3.43,4.12,4.12,0,0,0,4.07,3.41A2.87,2.87,0,0,0,1419.41,1021.41Z"/><path class="cls-17" d="M670.14,919.17s2.41-26.3-27-26.3c0,0,8.9,2.42,13.5,7.25,0,0-18.73-11-39.12,5.9s-7.73,59.29-13.93,67.34S573.29,983,576.24,1009s76.63,58.62,71.9,80.16c0,0,28.88-42.45,8.23-61.82,0,0,10.06,9.48,11.09,20.75,0,0,2.73-22-11.27-29-12.39-6.23-22.54-29-21.46-33.07S670.14,919.17,670.14,919.17Z"/><path class="cls-18" d="M641.22,1045.4s21.95,90.8,43.49,108.95c12.95,10.91,51.45,36,51.45,36l-16,5.81s-53.41-18-65.36-32.09-44.69-84.5-44.69-84.5Z"/><path class="cls-19" d="M767.25,1223.48l-5.16-12.77a36.22,36.22,0,0,0-33.59-22.66H633.36v318.11h393.57V1248.42H804.21A39.86,39.86,0,0,1,767.25,1223.48Z"/><path class="cls-20" d="M435,1204.92l.61,1.06c4.8,8.35,15.82,28.8,27.95,51.19,5.74,10.61,11.75,21.67,17.45,32.07,9.83,18,18.76,33.94,24,42.39s9.2,14.63,10.78,17h0a4.07,4.07,0,0,1,.51,2.49,129.93,129.93,0,0,0,.35,22.51c7.31,72.82,56.42,111.85,56.42,111.85l14.6,2.16s-20.66-76.55-26.75-119.82c-1-7.34-1.48-13.28-1.12-17.16,1.08-11.27-.92-27.82-4.71-46.83-6.74-33.77-19.11-75.22-29.85-108.4-.68-2.12-21.22-76.39-21.22-76.39-17.23,15.06-80.09,21.27-80.09,21.27S413.23,1166.28,435,1204.92Z"/><path class="cls-21" d="M618.26,1506.16H557.33s-1.46-9.29,1.72-16.33c3.05-6.76,7.4-7,.55-17.58,3.88,4,16.32,5.64,25.13,4.45,1.08,1.75,7,13.49,10.57,16.08C599.28,1495.65,617,1494.63,618.26,1506.16Z"/><path class="cls-21" d="M435,1204.92l.61,1.06c4.8,8.35,30.77,56.32,42.91,78.7-14.06-57.85-4.28-115.69-4.28-115.69Z"/><path class="cls-17" d="M661.83,915.47c.4-1.6-34.8,15.91-36.59,17.89-16.51,18.31-11.8,42.21-2.35,42.44,6.06.14,4.88,10.22,4.88,10.22l67.49-28.55S687.14,910.08,661.83,915.47Z"/><path class="cls-3" d="M639.15,1031.77s10.27,20.52,9,37.17c0,0-12.39,19.55-44.51,24.5C603.63,1093.44,631.25,1031.75,639.15,1031.77Z"/><path class="cls-20" d="M482.46,1144.9l.2-11.4c-22.7,2.87-78.29-27.13-78.29-27.13s-23.75,15.8-27,60.92c-1.58,22-11.63,115.16-12.74,143-.4,10.08-.54,17.27-.58,20.15v0a3.92,3.92,0,0,1-1,2.35,130.08,130.08,0,0,0-12.31,18.86c-34.65,64.46-16.53,152.06-16.53,152.06l8.05-2s29.3-90.8,48.44-130.08c3.25-6.66,6.21-11.84,8.68-14.84,7.2-8.75,14.79-23.6,22.27-41.47C435.82,1281.48,482.46,1144.9,482.46,1144.9Z"/><path class="cls-21" d="M382.7,1506.16H321.76s-1.46-9.29,1.73-16.33c3.05-6.76,7.82-9.84,6.68-18,3.87,4,10.18,8.45,19,7.27,1.08,1.75,7,11.11,10.57,13.7C363.72,1495.65,381.47,1494.63,382.7,1506.16Z"/><path class="cls-3" d="M599.52,1106.52c-8.19,1.4,1.34,7.9-9.92,9.13-16,1.75-32.57,2.94-41.23,6.4-3.16,1.26-5.28,2.82-5.94,4.81-3.75,11.29-27.54,30.7-27.54,30.7C408.78,1152.73,402,1105.44,402,1105.44c68.86-66.88,127.45-103.33,175.86-107.85,11.79-1.1,27.67.38,35.12,3.7,16.94,7.54,26.22,30.48,26.22,30.48S630.62,1101.22,599.52,1106.52Z"/><path class="cls-22" d="M589.6,1115.65c-16,1.75-32.57,2.94-41.23,6.4-25-49.93,21.43-92.72,21.43-92.72S586.09,1095.62,589.6,1115.65Z"/><path class="cls-18" d="M603.42,1020.37s-40.29-2.2-47.45,23.1,13.43,126.27,17.87,136.69c8.08,19,48.82,75.48,48.82,75.48l13.05-6.76s-26.22-82.73-32.08-90.91C594.44,1145.12,615.48,1031.37,603.42,1020.37Z"/><path class="cls-18" d="M635.71,1248.88a59.44,59.44,0,0,1,6.08,6.24c2.71,3.31.33,4.51,8.11,19.5,0,0-.39,2.09-2.09,1.7s-7.56-6.19-10.57-5.77c0,0-2.16,1.77-2.39,7.65-.22,5.49-.24,17.66-1.2,19.94s-7.95-9.58-11.39-18.15c-3-7.52-.07-32.87-.07-32.87Z"/><path class="cls-3" d="M548,1077.29c.11.6,38.13,7,61.92-5.07,0,0,19.87-62.25-8.53-59.27s-45.2,11.92-45.92,25.52S548,1077.29,548,1077.29Z"/><path class="cls-18" d="M612,1005.65c.41,5,1.05,10.93,7.65,17.72,5.05,5.2,12.34,9.26,17.47,4.14a55.36,55.36,0,0,0,7.93-9.58c4.43-7.62,9.71-15.4,9.71-15.4l-22.81-20-1.36-1.19a57.9,57.9,0,0,1-17,19.27C612.08,1001.79,611.87,1003.72,612,1005.65Z"/><path class="cls-23" d="M654.79,1002.54s-5.27,7.76-9.71,15.39c-14.17-8.74-14.19-26.29-13.09-35.38Z"/><path class="cls-18" d="M655.42,1012.55S621,993.4,633.26,972.15s16.07-38,38.56-26.71,22,21.88,19.68,30S664.69,1017,655.42,1012.55Z"/><path class="cls-17" d="M697.32,963c-1.58-9.44-6.37-10.34-9.72-9.71-12.71-21-33.47-12.81-33.47-12.81A46.9,46.9,0,0,1,627,956.79s4,7.43,20.45,12c5,1.41,10.73.55,16.24-1.3a91.88,91.88,0,0,1-23.36,8.81c21.68,2,42.32-17.84,44.46-20,1,3.08,2.75,9.51,1.7,14.21-1.43,6.39-7.1,18-3.64,19.46C682.85,990,699.68,977.17,697.32,963Z"/><path class="cls-18" d="M742.46,1190.34s-9.6,7.2-2.36,11.91,20.16,6,20.21,2.89C760.49,1194.77,755.31,1187.4,742.46,1190.34Z"/><path class="cls-3" d="M736.47,1411.47H939.83c8.38,0,14.84-12.82,14.95-21.89.33-28.49-30.25-74-99.56-53.86,0,0-19.56-52.79-88.28-46.39-40.35,3.76-62.84,44.93-65.55,81.64C699.77,1392.87,716.16,1411.47,736.47,1411.47Z"/><rect class="cls-9" x="808.34" y="1368.44" width="39.39" height="90.49" transform="translate(1656.06 2827.36) rotate(180)"/><polygon class="cls-9" points="876.91 1386.71 779.15 1386.71 828.03 1340.76 876.91 1386.71"/><polygon class="cls-21" points="1748.15 963.18 1696.76 974.99 1671.23 1021.13 1652.14 915.76 1748.15 963.18"/><rect class="cls-21" x="1701.88" y="962.2" width="9.39" height="54.32" transform="translate(-251.8 1226) rotate(-36.99)"/><path class="cls-18" d="M947.26,699.17a6,6,0,0,0-1.07,6.42s0,0,0,0c1.55,4.29,6.67,9.07,12.61,13.84.76.62,1.44,1.17,2,1.69.15.14.31.27.45.41l.35.31c5.54,5.12,3.46,6.29,13.42,16.66,11.36,11.82,19.18,12,21.4,11,1.89-.92-1.94-7.18-6.18-14.23l-.61-1c-.57-.93-1.13-1.88-1.69-2.82-5-8.48-3.69-12.46-2.51-25.08,1-10.25,15.95-57.29,15.95-57.29l-21.77-3.74s-6.55,37.45-13.77,43.21c-3.87,3.08-8.19,3.12-11.9,5.4-.26.15-.52.32-.77.48A28.56,28.56,0,0,0,947.26,699.17Z"/><path class="cls-21" d="M947.26,699.17a6,6,0,0,0-1.07,6.42s0,0,0,0c1.89,4.28,6.88,9,12.63,13.8.75.62,1.42,1.2,2,1.73.15.14.31.27.45.41l.35.31c5.54,5.12,3.46,6.29,13.42,16.66,11.36,11.82,19.18,12,21.4,11,1.89-.92-1.94-7.18-6.18-14.23a48.35,48.35,0,0,1-20.24-14.92c-6.59-8.41-11.07-19.13-15.55-25.71l-1.28-.24A28.56,28.56,0,0,0,947.26,699.17Z"/><path class="cls-18" d="M1122.78,685.57c1.34,6.72,10.92,5.6,21.62,3s8.16.49,23.39-1.19,19.84-7.37,20.3-9.63c.42-2-7.11-2.72-15.18-3.65-1-.11-2-.24-3.05-.37-9.12-1.14-15.79-7-24.07-11.85-7.84-4.57-19.54-23.21-19.54-23.21l-20.88,1.66s11,16.64,15.2,23.88c2.49,4.26,2.36,9.88,2,14.23A26.69,26.69,0,0,0,1122.78,685.57Z"/><path class="cls-21" d="M1144.4,688.56c10.7-2.62,8.16.49,23.39-1.19s19.84-7.37,20.3-9.63c.42-2-7.11-2.72-15.18-3.65l-.07.15A42.92,42.92,0,0,1,1151,681c-10.33.26-21.28-2.7-28.41-2.59a26.69,26.69,0,0,0,.16,7.14C1124.12,692.29,1133.7,691.17,1144.4,688.56Z"/><path class="cls-22" d="M1042.74,552l-19.52,52.54-25.49,68.59a41.33,41.33,0,0,1-13.54-1.23c-6.1-1.77-13.1-6.38-13.1-6.38s7.08-73.65,20.28-115.93c3.39-10.85,7.18-19.63,11.36-24.57C1023.2,500.86,1042.74,552,1042.74,552Z"/><path class="cls-3" d="M1022.89,468.6c-11.11-3.59-40.11-.06-71.56,5.64a21.35,21.35,0,0,1-22-9.95h0l-79.15-6.18S824,516,838.33,552.94c2.1,5.42,6.71,8.81,13.83,8.92h0s47.83.07,63.13.07c39.36,0,83.31-27.06,89-28.2,9.31-1.86,13,16.75,22.33,36.29s87.47,86.53,87.47,86.53,12,.12,17-1.74c5.34-2,7.29-4.6,7.29-4.6S1051.74,477.9,1022.89,468.6Z"/><path class="cls-21" d="M920.89,231.85a28.12,28.12,0,0,0-15.12-3.93,42.48,42.48,0,0,1-7.3-.44c-30.21-4.43-48.4,39.45-49.46,52.71-2,24.34-14.84,28.05-33,43.3-36.35,30.56-25.69,66.08-5.82,79.28,11.93,7.92,32.94,0,32.94,0,.3.21,57.48-32,85.67-47.49C971.09,349.28,937.87,242,920.89,231.85Z"/><path class="cls-18" d="M905.21,342.07c.13.08-13.87,4.86-23.22.72-8.8-3.89-15.47-18.37-15.34-18.38,4-.19,8.4-3.69,11.78-26.66l1.71.62,28.67,10.31s-2.08,9.2-3.42,18C904.25,334,903.65,341,905.21,342.07Z"/><path class="cls-24" d="M908.81,308.68s-1.15,5-2.82,14.24c-16.46-3-23.53-15.65-25.85-24.55Z"/><path class="cls-18" d="M913.08,317.81s-39.23-5.26-35.57-29.64,1-41.47,26.25-39.14,28.65,12.36,29.41,20.79S923.37,318.55,913.08,317.81Z"/><path class="cls-21" d="M931.74,256.46s-25.1,21.64-42.18,23.38S866,276.11,866,276.11a66.71,66.71,0,0,0,16.13-21.85,12,12,0,0,1,9.9-7.08C904.23,246.13,927.35,245.65,931.74,256.46Z"/><path class="cls-21" d="M916.05,254.53s8.4,8.12,11,14.14c2.56,5.81,3.32,19.72,1.29,25.24,0,0,13.09-25.45,5.68-37.81C926.2,243,916.05,254.53,916.05,254.53Z"/><path class="cls-9" d="M938.24,399.85c-1.19,79.39-.33,62.8-9,70.34-2.09,1.81-8,2.89-15.72,3.4-24.34,1.62-67.14-2.39-68.77-6.89-5.61-15.57-1.65-20.4-6.33-44.24-.49-2.53-1.1-5.28-1.8-8.26-3.91-16.37-7.71-21.94,6.14-48.24,12.57-23.82,25.63-43.16,26.8-42.46,33.16,19.69,35.83,3.14,35.83,3.14S938.82,361.12,938.24,399.85Z"/><path class="cls-3" d="M1023.22,604.57l-25.49,68.59a41.33,41.33,0,0,1-13.54-1.23c-6.1-1.77-13.1-6.38-13.1-6.38s7.08-73.65,20.28-115.93Z"/><path class="cls-9" d="M905.39,326.64s34.11,5.78,38.12,20.47S960.7,451,960.7,451s-9.62,9.4-17.63,1.38-25.21-83.42-25.21-83.42Z"/><path class="cls-12" d="M913.51,473.59c-24.34,1.62-67.14-2.39-68.77-6.89-5.61-15.57-1.65-20.4-6.33-44.24l11.74-33.06s-1.94,36.82,8.92,46.5,44.45,18.7,49.73,26.79A29.6,29.6,0,0,1,913.51,473.59Z"/><path class="cls-18" d="M885.62,458.11s24-5.35,27.89-3.22,13.35,9.9,14.53,12.6-8.62-2.05-11.82-2.91c-2.06-.55-7.51,1.34-10.2,2.23-11.33,3.78-18.28,1.84-18.28,1.84Z"/><path class="cls-9" d="M869.53,323.49s-32.25,2-43.41,17.55c-15.72,21.92-46.89,115.33-29,127.79,20.12,14,91.57,3.67,91.57,3.67s2.38-11.11-.93-16.49S830.67,442,828.19,439.47s31-48.39,31-55.83S869.53,323.49,869.53,323.49Z"/><path class="cls-18" d="M914.67,461.58s5,6.49,6.69,7.26a4.84,4.84,0,0,0,2.71.58l-3.39-6.1Z"/><path class="cls-18" d="M913.51,454.89,928.14,462a2.58,2.58,0,0,1-2.42.93c-1.8-.08-6.35-1.74-6.35-1.74Z"/><polygon class="cls-21" points="1038.45 471.59 885.62 471.59 885.62 474.97 1037.09 474.97 1038.45 471.59"/><polygon class="cls-21" points="921.36 474.97 1037.09 474.97 1071.91 388.39 956.35 388.39 921.36 474.97"/><path class="cls-25" d="M1007.88,431.68c.87-3-.89-5.51-3.93-5.51a7.89,7.89,0,0,0-7.09,5.51c-.88,3,.88,5.51,3.93,5.51A7.91,7.91,0,0,0,1007.88,431.68Z"/><path class="cls-12" d="M2138.28,827.35s56.09,57.06,58.95,80.75-29.07,60.66-29.07,60.66Z"/><path class="cls-26" d="M2106.23,1473.75s-2.14,33.38-8.6,33.85c-.86.06-32.76,0-32.76,0l-40.73-.32s.29-9.82,12.2-11.87,31.85-10.37,39.1-26.09C2083.06,1452.78,2106.23,1473.75,2106.23,1473.75Z"/><path class="cls-26" d="M2197,1473.94s-2.15,33.39-8.61,33.85c-.86.07-32.76,0-32.76,0l-40.73-.33s.29-9.81,12.2-11.86,31.85-10.37,39.1-26.09C2173.77,1453,2197,1473.94,2197,1473.94Z"/><path class="cls-27" d="M2061.91,1114.81s10.5,68.15,50,189.17,44.78,173.4,44.78,173.4l42.63-1.11s.65-132.16-17.53-193-3.48-219.25-3.48-219.25Z"/><path class="cls-28" d="M2041.27,1067.44s-1.73,102.66,15.75,228.75,11.36,179.58,11.36,179.58l42.53,1.51s25.7-126,18.55-189.15,35.28-216.42,35.28-216.42Z"/><path class="cls-18" d="M2124.14,827.38l-22.69,14.81L2068.7,836c.46-2.65,2.65-13.6,4.64-23.52.12-.59.24-1.18.35-1.75l3.18-15.69,30.62-13.44,11.42-5c0,.17-.9,9.37-1,10.71C2115.69,811.17,2124.14,827.38,2124.14,827.38Z"/><path class="cls-12" d="M2077.13,819.78c.63-.27,39.47-11.63,43.68-10.23s6.69,9.56,6.69,9.56L2064,833.33S2069,823.18,2077.13,819.78Z"/><path class="cls-9" d="M2181.07,1080.42c-6.64,30-116.14,33.32-144.3,6-3.2-3.12-3.33-17.56-2.08-37,2.45-38.05,10.18-95.28,10.54-124.53a232.4,232.4,0,0,1,4.76-41.68,338.1,338.1,0,0,1,14-49.87s53.51-17.17,63.51-14.21C2175.68,833.38,2187.71,1050.42,2181.07,1080.42Z"/><path class="cls-12" d="M2034.69,1049.4c2.45-38.05,10.18-95.28,10.54-124.53a232.4,232.4,0,0,1,4.76-41.68l32.18-5.61S2117.65,1013.92,2034.69,1049.4Z"/><path class="cls-18" d="M2052.23,996.39s2.18,5.25-2.43,8.76-7.62,9.2-6.57,13.37,11.13,11,14.64,9.9,10.64-6.56,9.88-8.76,4.83-19.28-3.69-25.88S2052.23,996.39,2052.23,996.39Z"/><path class="cls-9" d="M2087.69,827.46s-30.51,4-55.59,40.81-41.58,64.13-37,77.42,46.45,59.43,53.69,59.45,18.92-5.23,19.6-17.07c0,0-26.53-47.1-20.69-53.72,2.49-2.83,35.51-29.13,40.6-16C2096.73,940.17,2087.69,827.46,2087.69,827.46Z"/><path class="cls-29" d="M2115.59,787.75c-6.75,11.36-31.8,21.15-42.25,24.75.12-.59.24-1.18.35-1.75l3.18-15.69,30.62-13.44C2114.25,781.55,2118.37,783.07,2115.59,787.75Z"/><path class="cls-18" d="M2065.34,793.17s49.25,15.48,58.42-15.34,21.7-49.57-9.36-60.76-40.69-1.25-46.25,8.29S2052.76,788.35,2065.34,793.17Z"/><path class="cls-27" d="M2070.09,722.39s3.06,35.89,10.49,34.35,14.16-2.68,13.05,8.14-11.43,23.28,11.43,25.24,55.88-57,49.62-68.13C2136.62,689.73,2044,683,2070.09,722.39Z"/><rect class="cls-30" y="1506.16" width="2656.65" height="7.29" rx="3.06"/></g></g></svg>